<?xml version="1.0" encoding="utf-8"?>
<!-- Generator: Adobe Illustrator 21.1.0, SVG Export Plug-In . SVG Version: 6.00 Build 0)  -->
<svg version="1.1" id="Layer_1" xmlns="http://www.w3.org/2000/svg" xmlns:xlink="http://www.w3.org/1999/xlink" x="0px" y="0px"
	 viewBox="0 0 1366 768" style="enable-background:new 0 0 1366 768;" xml:space="preserve">
<style type="text/css">
	.st0{fill:#063B60;}
	.st1{fill:#44ADB7;}
	.st2{fill:url(#SVGID_3_);}
</style>
<g>
	<g>
		<path class="st0" d="M439.7,221.5c-5.8,0-11.6-1.9-16.5-5.7c-11.7-9.1-13.8-26-4.7-37.7C482.5,95.9,578.9,48.8,683,48.8
			c102.7,0,198.3,46.1,262.3,126.5c9.3,11.6,7.3,28.5-4.3,37.8c-11.6,9.3-28.5,7.3-37.8-4.3C849.5,141.3,769.2,102.6,683,102.6
			c-87.4,0-168.3,39.6-222.1,108.6C455.6,217.9,447.7,221.5,439.7,221.5z"/>
	</g>
	<g>
		<path class="st0" d="M683,719.2c-102.7,0-198.3-46.1-262.3-126.5c-9.3-11.6-7.3-28.5,4.3-37.8c11.6-9.3,28.5-7.3,37.8,4.3
			c53.8,67.5,134.1,106.2,220.2,106.2c86.2,0,166.5-38.7,220.2-106.2c9.3-11.6,26.2-13.5,37.8-4.3c11.6,9.3,13.5,26.2,4.3,37.8
			C881.2,673.1,785.6,719.2,683,719.2z"/>
	</g>
	<g>
		<g>
			<path class="st1" d="M79.3,499.4H27.9V219.5L79.3,192v204l76.1-96.5h58.7l-66.4,83.4l66.4,116.5h-58.7l-40.6-72.7l-35.5,47.1
				V499.4z"/>
			<path class="st1" d="M282.5,575.6v-51.4l28.4,0.4c5,0,9.8-0.8,14.4-2.4c4.6-1.6,8.9-3.9,12.8-6.7c3.9-2.9,7.4-6.3,10.4-10.2
				c3-3.9,5.4-8.2,7.3-12.8c-5.6,2.4-11.3,4.7-17.1,7.1c-5.8,2.4-11.6,3.6-17.5,3.6c-12.3,0-23.9-2.2-34.8-6.5
				c-10.8-4.4-20.3-10.6-28.5-18.6c-8.2-8-14.6-17.8-19.3-29.3c-4.7-11.5-7-24.5-7-38.8V299.1h50.8v110.7c0,7.1,1,13.3,3.1,18.6
				c2.1,5.3,4.8,9.7,8.3,13.3c3.5,3.6,7.6,6.2,12.2,7.9c4.7,1.7,9.7,2.6,15,2.6c5.2,0,10.2-1.2,14.9-3.6c4.7-2.4,8.8-5.6,12.2-9.6
				c3.5-4,6.2-8.5,8.2-13.6c2-5,3-10.2,3-15.6V299.1h51.4v175c-0.1,14.1-2.9,27.3-8.2,39.6c-5.4,12.3-12.7,23.1-22,32.3
				c-9.3,9.2-20.1,16.5-32.4,21.9c-12.3,5.4-25.5,8-39.6,8L282.5,575.6z"/>
		</g>
		<g>
			<path class="st0" d="M702.5,427c0,10.5-2,20.3-6,29.6c-4,9.3-9.4,17.4-16.4,24.2c-6.9,6.9-15,12.3-24.3,16.3
				c-9.3,4-19.2,6-29.8,6c-9.5,0-18.6-1.7-27.3-5c-8.7-3.3-16.6-8.1-23.7-14.5c-7,6.4-14.8,11.2-23.5,14.5c-8.7,3.3-17.8,5-27.4,5
				c-10.6,0-20.5-2-29.7-6c-9.2-4-17.3-9.4-24.2-16.3c-6.9-6.9-12.4-14.9-16.4-24.2c-4-9.3-6-19.2-6-29.6V299.5h51V427
				c0,3.5,0.7,6.8,2,9.8c1.3,3.1,3.1,5.7,5.4,8c2.3,2.3,5,4.1,8,5.4c3.1,1.3,6.3,2,9.8,2c3.5,0,6.8-0.7,9.9-2
				c3.1-1.3,5.9-3.1,8.2-5.4c2.4-2.3,4.2-5,5.5-8c1.3-3.1,2-6.3,2-9.8V299.5h50.8V427c0,3.5,0.7,6.8,2.1,9.8c1.4,3.1,3.2,5.7,5.5,8
				c2.3,2.3,5,4.1,8,5.4c3.1,1.3,6.3,2,9.8,2c3.5,0,6.8-0.7,9.9-2c3.1-1.3,5.8-3.1,8.1-5.4c2.3-2.3,4.1-5,5.5-8
				c1.4-3.1,2.1-6.3,2.1-9.8V299.5h50.8V427z"/>
			<path class="st0" d="M787.8,575.6v-51.4l28.4,0.4c5,0,9.8-0.8,14.4-2.4c4.6-1.6,8.9-3.9,12.8-6.7c3.9-2.9,7.4-6.3,10.4-10.2
				c3-3.9,5.4-8.2,7.3-12.8c-5.6,2.4-11.3,4.7-17.1,7.1c-5.8,2.4-11.6,3.6-17.5,3.6c-12.3,0-23.9-2.2-34.8-6.5
				c-10.8-4.4-20.3-10.6-28.5-18.6c-8.2-8-14.6-17.8-19.3-29.3c-4.7-11.5-7-24.5-7-38.8V299.1h50.8v110.7c0,7.1,1,13.3,3.1,18.6
				c2.1,5.3,4.8,9.7,8.3,13.3c3.5,3.6,7.6,6.2,12.2,7.9c4.7,1.7,9.7,2.6,15,2.6c5.2,0,10.2-1.2,14.9-3.6c4.7-2.4,8.8-5.6,12.2-9.6
				c3.5-4,6.2-8.5,8.2-13.6c2-5,3-10.2,3-15.6V299.1h51.4v175c-0.1,14.1-2.9,27.3-8.2,39.6c-5.4,12.3-12.7,23.1-22,32.3
				c-9.3,9.2-20.1,16.5-32.4,21.9c-12.3,5.4-25.5,8-39.6,8L787.8,575.6z"/>
		</g>
		<g>
			<path class="st1" d="M1006.5,499.4h-51.4V219.5h51.4V396l76.1-96.5h58.7l-66.4,83.4l66.4,116.5h-58.7l-40.6-72.7l-35.5,47.1
				V499.4z"/>
			<path class="st1" d="M1209.7,575.6v-51.4l28.4,0.4c5,0,9.8-0.8,14.4-2.4c4.6-1.6,8.9-3.9,12.8-6.7c3.9-2.9,7.4-6.3,10.4-10.2
				c3-3.9,5.4-8.2,7.3-12.8c-5.6,2.4-11.3,4.7-17.1,7.1c-5.8,2.4-11.6,3.6-17.5,3.6c-12.3,0-23.9-2.2-34.8-6.5
				c-10.8-4.4-20.3-10.6-28.5-18.6c-8.2-8-14.6-17.8-19.3-29.3c-4.7-11.5-7-24.5-7-38.8V299.1h50.8v110.7c0,7.1,1,13.3,3.1,18.6
				c2.1,5.3,4.8,9.7,8.3,13.3c3.5,3.6,7.6,6.2,12.2,7.9c4.7,1.7,9.7,2.6,15,2.6c5.2,0,10.2-1.2,14.9-3.6c4.7-2.4,8.8-5.6,12.2-9.6
				c3.5-4,6.2-8.5,8.2-13.6c2-5,3-10.2,3-15.6V299.1h51.4v175c-0.1,14.1-2.9,27.3-8.2,39.6c-5.4,12.3-12.7,23.1-22,32.3
				c-9.3,9.2-20.1,16.5-32.4,21.9c-12.3,5.4-25.5,8-39.6,8L1209.7,575.6z"/>
		</g>
	</g>
</g>
</svg>
